<?xml version="1.0" standalone="no"?>
<!DOCTYPE svg PUBLIC "-//W3C//DTD SVG 1.1//EN" "http://www.w3.org/Graphics/SVG/1.1/DTD/svg11.dtd" >
<!--
2013-9-30: Created.
-->
<svg>
<metadata>
Created by iconfont
</metadata>
<defs>

<font id="iconfont" horiz-adv-x="1024" >
  <font-face
    font-family="iconfont"
    font-weight="500"
    font-stretch="normal"
    units-per-em="1024"
    ascent="896"
    descent="-128"
  />
    <missing-glyph />
    
    <glyph glyph-name="tiaoban" unicode="&#58909;" d="M296.277333-58.641067v-0.2048H181.998933A79.530667 79.530667 0 0 0 102.4 20.6848V747.383467c0 43.895467 35.6352 79.4624 79.530667 79.4624h652.151466c43.895467 0 79.4624-35.498667 79.4624-79.4624V559.445333a29.832533 29.832533 0 0 0-59.5968-0.955733h-0.136533V742.331733a24.849067 24.849067 0 0 1-24.849067 24.849067H187.050667a24.849067 24.849067 0 0 1-24.849067-24.849067v-716.5952a24.849067 24.849067 0 0 1 24.849067-24.849066H293.546667a29.832533 29.832533 0 1 0 2.730666-59.528534zM912.452267-27.989333c0-19.319467-8.055467-29.627733-26.8288-29.627734s-29.627733 11.810133-29.627734 29.627734c0 119.808-77.2096 187.1872-196.949333 187.1872-119.739733 0-196.949333-67.3792-196.949333-187.1872a30.037333 30.037333 0 0 0-29.696-29.627734c-15.9744 0-26.8288 10.513067-26.8288 29.627734 0 141.653333 111.957333 243.712 253.474133 243.712 141.5168 0 253.405867-102.058667 253.405867-243.712zM663.9616 165.956267a158.993067 158.993067 0 1 0 0 317.986133 158.993067 158.993067 0 0 0 0-317.986133z m0 268.356266c-60.2112 0-109.226667-49.015467-109.226667-109.294933s49.015467-109.3632 109.226667-109.3632c60.279467 0 109.3632 49.083733 109.3632 109.3632 0 60.279467-49.083733 109.294933-109.294933 109.294933z"  horiz-adv-x="1024" />

    
    <glyph glyph-name="xianshangyueduguan" unicode="&#58907;" d="M480.528168-124.766316c-25.761684 14.605474-49.367579 29.103158-73.889684 41.876211a666.677895 666.677895 0 0 1-301.541052 77.662316c-32.983579 0-42.738526 9.108211-44.463158 33.091368-1.401263 18.324211 0 28.564211 24.252631 30.666105 45.702737 3.772632 88.279579 47.966316 93.399579 98.41179 6.036211 52.870737 5.497263 106.280421-1.509052 159.043368A112.963368 112.963368 0 0 1 73.838484 412.941474c-10.24 1.077895-13.581474 4.311579-13.581473 14.497684-0.700632 37.941895 8.084211 47.858526 46.08 47.050105a761.856 761.856 0 0 0 361.472-88.926316c9.269895-3.610947 15.090526-12.773053 14.551578-22.635789v-472.656842c-0.431158-4.311579-1.239579-8.677053-1.778526-15.090527z m61.278316-0.538947V360.016842a24.953263 24.953263 0 0 0 14.605474 26.300632 762.933895 762.933895 0 0 0 369.717895 87.95621c29.480421 0 45.487158-25.061053 36.648421-54.218105-2.317474-7.437474-7.706947-6.359579-12.611369-6.629053-58.044632-2.694737-110.376421-60.739368-107.627789-122.017684 1.724632-37.187368 1.455158-74.428632 0-111.562105-2.479158-63.218526 49.044211-121.263158 108.43621-123.149474 9.754947 0 11.641263-4.634947 12.072421-13.581474 1.239579-35.516632-6.898526-47.696842-39.343158-47.966315-132.149895-2.263579-260.958316-42.037895-371.334736-114.849685l-10.563369-5.712842zM470.881011 539.486316a179.631158 179.631158 0 0 0-138.132211 192.296421 179.792842 179.792842 0 0 0 358.184421 0 179.469474 179.469474 0 0 0-138.293895-192.296421 33.576421 33.576421 0 0 0-25.6-8.623158c-10.617263-2.155789-21.450105-2.533053-32.175158-1.077895a42.307368 42.307368 0 0 0-23.983157 9.701053zM120.673011 234.388211v-59.823158a59.122526 59.122526 0 0 0-59.930948-59.284211A58.745263 58.745263 0 0 0 0.541642 174.888421a3436.867368 3436.867368 0 0 0 0 122.017684c0.592842 32.336842 27.109053 58.098526 59.392 57.775158a59.122526 59.122526 0 0 0 60.577684-58.421895c0.538947-20.641684 0.161684-41.229474 0.161685-61.817263z m902.03621 0v-59.823158a59.823158 59.823158 0 0 0-119.430737 0c0 40.690526-0.808421 81.381053 0 122.017684a59.823158 59.823158 0 0 0 119.430737 0c0.538947-21.018947 0.107789-41.606737 0-62.194526zM495.295326 532.533895l29.103158 3.610947c19.833263-4.203789 40.690526 0.862316 59.823158-3.233684a243.173053 243.173053 0 0 0 106.172632-28.456421c-42.846316-13.581474-83.914105-22.528-118.245053-44.624842-42.037895-27.109053-78.632421-27.109053-120.778105 0-34.061474 22.258526-75.398737 30.935579-117.975579 45.002105a245.059368 245.059368 0 0 0 106.010947 28.079158 192.835368 192.835368 0 0 0 55.888842-0.377263zM495.295326 487.100632H439.406484c9.647158 49.421474 22.258526-11.102316 31.474527 49.421473 8.623158 3.664842 17.246316-13.689263 24.414315-49.421473z m88.926316 3.018105c-19.941053 0-40.690526-36.325053-59.823158 24.252631l28.240842 25.168843c9.377684-60.523789 21.989053 0 31.582316-49.421474z"  horiz-adv-x="1024" />

    
    <glyph glyph-name="daochu" unicode="&#58906;" d="M570.683077 249.304615a66.953846 66.953846 0 1 0-133.907692 0V763.431385a66.953846 66.953846 0 1 0 133.907692 0V249.304615zM861.735385 249.304615a66.953846 66.953846 0 0 0 133.907692 0v-251.904c0-37.021538-29.932308-66.953846-66.953846-66.953846H78.769231a66.953846 66.953846 0 0 0-66.953846 66.953846V249.304615a66.953846 66.953846 0 1 0 133.907692 0v-184.950153h716.012308V249.304615zM273.092923 459.697231a66.953846 66.953846 0 1 0-96.098461 93.341538L455.758769 840.073846a66.953846 66.953846 0 0 0 96.571077-0.551384l272.384-287.035077a66.953846 66.953846 0 0 0-97.122461-92.16L503.177846 696.713846 273.092923 459.697231z"  horiz-adv-x="1024" />

    
    <glyph glyph-name="yichubanji" unicode="&#58905;" d="M97.673846-27.963077h780.366769V449.536H97.595077v-477.499077z m-15.753846 572.022154h811.874462a78.769231 78.769231 0 0 0 78.76923-78.769231v-509.006769a78.769231 78.769231 0 0 0-78.76923-78.769231H81.841231a78.769231 78.769231 0 0 0-78.769231 78.769231V465.289846a78.769231 78.769231 0 0 0 78.769231 78.769231zM161.161846 597.0707689999999a47.261538 47.261538 0 1 0 0 94.523077h642.993231a47.261538 47.261538 0 0 0 0-94.523077H161.161846zM279.630769 739.643077a47.261538 47.261538 0 1 0 0 94.523077h416.531693a47.261538 47.261538 0 1 0 0-94.523077H279.630769zM551.227077 328.388923a47.261538 47.261538 0 1 0 70.892308 62.542769l71.995077-81.683692a47.261538 47.261538 0 0 0-35.446154-78.532923H311.532308a47.261538 47.261538 0 1 0 0 94.523077h242.530461l-2.835692 3.150769zM420.785231 87.03999999999996a47.261538 47.261538 0 1 0-70.892308-62.542769l-71.995077 81.683692a47.261538 47.261538 0 0 0 35.446154 78.454154h347.214769a47.261538 47.261538 0 1 0 0-94.523077h-242.609231l2.835693-3.150769z"  horiz-adv-x="1024" />

    
    <glyph glyph-name="logout" unicode="&#58904;" d="M875.861333 693.725867a34.133333 34.133333 0 1 0-51.882666-44.2368 409.6 409.6 0 1 1 19.114666-506.743467 34.133333 34.133333 0 0 0 55.0912-40.277333 477.866667 477.866667 0 1 0-22.254933 591.2576zM378.948267 355.191467a34.133333 34.133333 0 1 0 0 68.266666h587.776a34.133333 34.133333 0 1 0 0-68.266666H378.88zM841.864533 498.414933a34.133333 34.133333 0 1 0 49.834667 46.557867l126.976-135.9872a34.133333 34.133333 0 0 0-1.365333-47.9232l-126.907734-121.514667a34.133333 34.133333 0 1 0-47.240533 49.288534l102.6048 98.235733-103.901867 111.274667z"  horiz-adv-x="1092" />

    
    <glyph glyph-name="xinjianbanji" unicode="&#58903;" d="M81.08032 108.11392h77.824V-46.08c0-2.2528 1.8432-4.096 4.096-4.096h778.24a4.096 4.096 0 0 1 4.096 4.096V814.08a4.096 4.096 0 0 1-4.096 4.096h-778.24a4.096 4.096 0 0 1-4.096-4.096v-186.53184h-77.824V814.08a81.92 81.92 0 0 0 81.92 81.92h778.24a81.92 81.92 0 0 0 81.92-81.92v-860.16a81.92 81.92 0 0 0-81.92-81.92h-778.24a81.92 81.92 0 0 0-81.92 81.92v154.19392z m0 0h77.824V-46.08c0-2.2528 1.8432-4.096 4.096-4.096h778.24a4.096 4.096 0 0 1 4.096 4.096V814.08a4.096 4.096 0 0 1-4.096 4.096h-778.24a4.096 4.096 0 0 1-4.096-4.096v-186.53184h-77.824V814.08a81.92 81.92 0 0 0 81.92 81.92h778.24a81.92 81.92 0 0 0 81.92-81.92v-860.16a81.92 81.92 0 0 0-81.92-81.92h-778.24a81.92 81.92 0 0 0-81.92 81.92v154.19392zM573.41952 320.26624a182.272 182.272 0 1 0 0 364.544 182.272 182.272 0 0 0 0-364.544z m0 77.824a104.448 104.448 0 1 1 0 208.896 104.448 104.448 0 0 1 0-208.896zM870.56384 109.60896a38.912 38.912 0 1 0-77.824 0c0 114.23744-92.61056 206.848-206.848 206.848-114.25792 0-206.848-92.61056-206.848-206.848a38.912 38.912 0 1 0-77.824 0c0 157.22496 127.44704 284.672 284.672 284.672 157.20448 0 284.672-127.44704 284.672-284.672zM39.07584 473.02656a38.912 38.912 0 0 0 0 77.824h168.09984a38.912 38.912 0 0 0 0-77.824H39.07584zM39.07584 329.66656a38.912 38.912 0 0 0 0 77.824h168.09984a38.912 38.912 0 0 0 0-77.824H39.07584zM39.07584 186.30656a38.912 38.912 0 0 0 0 77.824h168.09984a38.912 38.912 0 0 0 0-77.824H39.07584zM119.99232 629.47328m-38.912 0a38.912 38.912 0 1 1 77.824 0 38.912 38.912 0 1 1-77.824 0ZM119.99232 108.2368m-38.912 0a38.912 38.912 0 1 1 77.824 0 38.912 38.912 0 1 1-77.824 0Z"  horiz-adv-x="1024" />

    
    <glyph glyph-name="kechengdingdan" unicode="&#58902;" d="M102.4 834.666667c0-10.88-8.832-19.733333-19.733333-19.733334H102.4v19.733334z m697.984-19.733334c0.384 0 0.704-0.32 0.704-0.704v-190.848h81.066667V814.229333A81.770667 81.770667 0 0 1 800.384 896H82.666667A61.333333 61.333333 0 0 1 21.333333 834.666667v-216.917334l81.066667 0.533334V814.933333h697.984z m-717.717333 0c10.88 0 19.733333 8.832 19.733333 19.733334V814.933333h-19.733333z m717.717333 0c0.384 0 0.704-0.32 0.704-0.704v-190.848h81.066667V814.229333A81.770667 81.770667 0 0 1 800.384 896H82.666667A61.333333 61.333333 0 0 1 21.333333 834.666667v-216.917334l81.066667 0.533334V814.933333h697.984zM102.4-40.896c0-2.346667 1.92-4.266667 4.266667-4.266667h797.76a4.266667 4.266667 0 0 1 4.266666 4.266667v636.373333a4.266667 4.266667 0 0 1-4.266666 4.266667H102.4v-640.64zM42.666667 680.810667h861.76a85.333333 85.333333 0 0 0 85.333333-85.333334v-636.373333a85.333333 85.333333 0 0 0-85.333333-85.333333H106.666667a85.333333 85.333333 0 0 0-85.333334 85.333333v700.373333a21.333333 21.333333 0 0 0 21.333334 21.333334zM408.064 438.314667h-144.256v-135.829334l72.128 35.84 72.128-35.84v135.829334z m59.733333 81.066666a21.333333 21.333333 0 0 0 21.333334-21.333333v-291.946667a21.333333 21.333333 0 0 0-30.826667-19.093333l-122.368 60.8-122.368-60.8a21.333333 21.333333 0 0 0-30.826667 19.093333V498.048a21.333333 21.333333 0 0 0 21.333334 21.333333h263.722666z"  horiz-adv-x="1024" />

    
    <glyph glyph-name="caidanxitong" unicode="&#58901;" d="M36.571429 896h163.108571a36.571429 36.571429 0 0 0 36.571429-36.571429v-163.108571a36.571429 36.571429 0 0 0-36.571429-36.571429H36.571429a36.571429 36.571429 0 0 0-36.571429 36.571429V859.428571A36.571429 36.571429 0 0 0 36.571429 896z m0-393.874286h163.108571a36.571429 36.571429 0 0 0 36.571429-36.571428v-163.108572a36.571429 36.571429 0 0 0-36.571429-36.571428H36.571429a36.571429 36.571429 0 0 0-36.571429 36.571428v163.108572a36.571429 36.571429 0 0 0 36.571429 36.571428z m0-393.801143h163.108571a36.571429 36.571429 0 0 0 36.571429-36.571428V-91.428571a36.571429 36.571429 0 0 0-36.571429-36.571429H36.571429a36.571429 36.571429 0 0 0-36.571429 36.571429v163.108571a36.571429 36.571429 0 0 0 36.571429 36.571429zM430.445714 896h714.532572a36.571429 36.571429 0 0 0 36.571428-36.571429v-163.108571a36.571429 36.571429 0 0 0-36.571428-36.571429h-714.605715a36.571429 36.571429 0 0 0-36.571428 36.571429V859.428571a36.571429 36.571429 0 0 0 36.571428 36.571429z m0-393.874286h714.532572a36.571429 36.571429 0 0 0 36.571428-36.571428v-163.108572a36.571429 36.571429 0 0 0-36.571428-36.571428h-714.605715a36.571429 36.571429 0 0 0-36.571428 36.571428v163.108572a36.571429 36.571429 0 0 0 36.571428 36.571428z m0-393.801143h714.532572a36.571429 36.571429 0 0 0 36.571428-36.571428V-91.428571a36.571429 36.571429 0 0 0-36.571428-36.571429h-714.605715a36.571429 36.571429 0 0 0-36.571428 36.571429v163.108571a36.571429 36.571429 0 0 0 36.571428 36.571429z"  horiz-adv-x="1243" />

    
    <glyph glyph-name="qunfaxiaoxi" unicode="&#58900;" d="M746.577873 105.943198c-19.578876 0-36.147193-13.230077-41.123832-31.150074H395.509783c-31.866874 0-65.535987-18.739196-83.189743-45.363191l-45.875191-43.499511-0.08192 16.752637a43.294711 43.294711 0 0 1-4.915199 19.660796c-16.035837 30.351354-52.776949 52.40831-87.449582 52.408309H106.557521V554.659908h14.213117a42.659831 42.659831 0 0 1 0 85.340143H92.364884C53.145692 640.000051 21.237858 606.822458 21.237858 566.108226v-502.845339c0-40.734712 32.010234-73.809905 71.290866-73.809906h81.407984a18.841596 18.841596 0 0 0 7.167998-2.867199l0.38912-61.132788c0.04096-9.318398 3.153919-18.370556 8.826878-25.763835 13.516797-17.612796 33.320953-27.729914 54.271989-27.688954h0.06144c19.660796 0 38.338552 8.970238 51.73247 24.616955l78.827504 74.915825c2.580479 2.47808 6.348799 7.782398 8.232959 10.854398 3.112959 3.624959 7.372799 6.103039 12.083197 7.024638h322.641856a70.860786 70.860786 0 0 1 63.057907 39.772152c5.242879 7.249919 8.048638 15.974397 8.007679 24.903675v9.175039c0 23.572475-19.087356 42.680311-42.659832 42.680311M917.237679 330.752113h-67.399667c-21.381116 0-42.987511-9.011198-60.600307-22.527995-4.055039-3.112959-8.314878-5.939199-11.857918-9.564159a91.791342 91.791342 0 0 1-15.011837-20.295675 43.048951 43.048951 0 0 1-4.915199-19.640317l-0.08192-16.855036-45.875191 43.560951c-3.194879 4.833279-7.372799 9.011198-11.509758 13.230077-18.739196 19.210236-45.567991 32.092154-71.679985 32.092154H319.897638V810.659857h597.340041V330.752113zM995.737503 853.340169C984.309666 878.469124 959.89751 896 931.430316 896H305.705001c-28.467194 0-52.879349-17.530876-64.266227-42.659831a75.960305 75.960305 0 0 1-6.860799-31.191034V319.283315c0-7.229439 1.31072-14.049277 3.15392-20.623356 8.663038-30.679034 35.676153-53.247989 67.932146-53.247989h322.600896c4.669439-0.90112 8.908798-3.317759 12.021757-6.901759 2.1504-4.095999 4.956159-7.782398 8.335359-10.977277l78.807024-74.915825c13.393917-15.708157 32.071674-24.616955 51.75295-24.616955h0.04096c20.951036 0 40.755192 10.076158 54.271989 27.688954a42.598391 42.598391 0 0 1 8.806398 25.763835l0.4096 61.194228a18.227196 18.227196 0 0 0 7.127038 2.764799h81.448944c32.337914 0 59.432948 22.568955 68.095987 53.247989 1.88416 6.574079 3.194879 13.393917 3.194879 20.623356V822.149135a75.980785 75.980785 0 0 1-6.860799 31.191034zM511.8976 640.000051a64.020467 64.020467 0 1 1 0.04096-127.938534 64.020467 64.020467 0 0 1-0.04096 127.897574m213.340117 0.04096a64.020467 64.020467 0 1 1 0.04096-127.938534 64.020467 64.020467 0 0 1-0.04096 127.897574"  horiz-adv-x="1024" />

    
    <glyph glyph-name="paike" unicode="&#58899;" d="M235.716923 819.101538H98.205538c-10.555077 0-21.385846-12.445538-21.385846-30.188307v-793.6c0-17.723077 10.830769-30.168615 21.385846-30.168616h857.639385c10.555077 0 21.366154 12.425846 21.366154 30.148923v793.6c0 17.762462-10.830769 30.208-21.366154 30.208h-127.704615c-6.695385 0-13.154462-4.194462-16.600616-11.716923-1.496615-3.485538-7.601231-17.644308-9.609846-22.212923a575.015385 575.015385 0 0 0-12.937846-27.431384c-26.328615-51.928615-52.263385-82.038154-92.238769-82.038154H367.104c-39.975385 0-65.890462 30.129231-92.219077 82.038154a575.015385 575.015385 0 0 0-12.937846 27.431384c-2.028308 4.588308-8.132923 18.766769-9.649231 22.252308-3.426462 7.483077-9.885538 11.677538-16.561231 11.677538z m464.738462-62.345846c6.715077 7.798154 14.099692 19.692308 21.779692 34.835693 3.682462 7.286154 7.345231 15.064615 11.244308 23.906461 1.536 3.426462 3.012923 6.852923 4.844307 11.106462l4.253539 9.90523c15.143385 35.091692 48.64 57.422769 85.543384 57.42277h127.704616c54.370462 0 96.196923-48.088615 96.196923-105.019077v-793.6c0-56.930462-41.826462-104.999385-96.196923-104.999385H98.185846C43.795692-109.686154 1.969231-61.636923 1.969231-4.706462v793.6C1.969231 845.863385 43.795692 893.952 98.185846 893.952h137.550769c36.883692 0 70.4-22.331077 85.523693-57.383385l4.253538-9.944615c1.831385-4.253538 3.328-7.68 4.844308-11.106462 3.918769-8.861538 7.561846-16.620308 11.264-23.906461 7.68-15.163077 15.044923-27.037538 21.76-34.835692 2.56-2.953846 4.765538-5.041231 6.4-6.22277h324.273231c1.634462 1.181538 3.84 3.268923 6.4 6.22277zM435.928615 805.966769c-20.676923 0-37.415385 17.644308-37.415384 39.384616 0 21.76 16.738462 39.384615 37.415384 39.384615H637.243077c20.676923 0 37.415385-17.624615 37.415385-39.384615 0-21.740308-16.738462-39.384615-37.415385-39.384616H435.928615zM422.006154 407.197538a37.415385 37.415385 0 0 0 0 74.83077h365.824a37.415385 37.415385 0 1 0 0-74.83077H421.986462zM422.006154 215.433846a37.415385 37.415385 0 0 0 0 74.830769h365.824a37.415385 37.415385 0 1 0 0-74.830769H421.986462z"  horiz-adv-x="1063" />

    
    <glyph glyph-name="kechenghuodong" unicode="&#58898;" d="M924.18048 704.73728h-35.88096c18.18624 30.84288 26.17344 60.27264 23.63392 87.552-2.12992 22.85568-12.94336 55.5008-52.6336 81.53088-32.8704 21.64736-75.1616 26.95168-122.0608 15.23712-76.10368-19.10784-166.13376-84.7872-225.36192-164.1472-59.22816 79.36-149.21728 145.03936-225.28 164.1472-46.98112 11.79648-89.2928 6.4512-122.18368-15.23712-39.6288-26.0096-50.46272-58.6752-52.57216-81.5104-2.53952-27.29984 5.36576-56.7296 23.63392-87.57248H99.59424a98.69312 98.69312 0 0 1-98.5088-98.59072v-126.99648c0-43.008 28.34432-80.9984 69.38624-93.75744a97.52576 97.52576 0 0 1-5.9392-33.25952V-28.8768a98.7136 98.7136 0 0 1 98.57024-98.57024H860.7744c54.31296 0 98.5088 44.2368 98.5088 98.57024V352.13312c0 11.38688-1.96608 22.56896-5.87776 33.30048 40.96 12.82048 69.28384 50.83136 69.28384 93.71648v126.976a98.7136 98.7136 0 0 1-98.5088 98.6112zM860.7744-57.2416H546.95936V380.53888H860.7744c15.64672 0 28.32384-12.75904 28.32384-28.40576V-28.8768c0-15.64672-12.6976-28.3648-28.32384-28.3648zM585.60512 704.73728c49.90976 57.56928 115.42528 102.8096 168.61184 116.16256 27.62752 6.92224 50.23744 5.0176 66.60096-5.75488 17.38752-11.44832 20.48-21.62688 21.17632-29.32736 2.78528-28.22144-27.48416-66.2528-41.7792-81.08032h-214.6304z m366.85824-98.6112v-126.976c0-15.64672-12.65664-28.3648-28.28288-28.3648h-377.2416v183.7056h377.2416c15.62624 0 28.2624-12.73856 28.2624-28.3648zM476.7744 380.5184v-437.78048H163.10272A28.3648 28.3648 0 0 0 134.7584-28.8768V352.13312c0 15.64672 12.6976 28.40576 28.3648 28.40576H476.7744zM181.78048 785.8176c0.67584 7.70048 3.80928 17.87904 21.13536 29.32736 16.26112 10.77248 38.87104 12.77952 66.64192 5.7344 52.89984-13.25056 118.33344-58.49088 168.3456-116.1216h-214.4256c-12.8 12.94336-44.52352 52.16256-41.69728 81.05984z m-110.55104-179.712c0 15.64672 12.6976 28.38528 28.3648 28.38528H476.7744v-183.7056H99.59424a28.3648 28.3648 0 0 0-28.3648 28.3648v126.976z"  horiz-adv-x="1024" />

    
    <glyph glyph-name="jiaocaiguanli" unicode="&#58897;" d="M785.092923 187.825231a82.018462 82.018462 0 0 1-81.939692-81.92 82.038154 82.038154 0 0 1 81.92-81.939693 82.018462 82.018462 0 0 1 81.959384 81.92 81.329231 81.329231 0 0 1-24.024615 57.915077 81.388308 81.388308 0 0 1-57.915077 24.024616z m0-126.109539a44.209231 44.209231 0 0 0-44.169846 44.169846 44.209231 44.209231 0 0 0 44.169846 44.150154 44.209231 44.209231 0 0 0 44.150154-44.150154 44.209231 44.209231 0 0 0-44.150154-44.169846zM1006.690462 149.700923c-2.894769 15.36-12.544 25.265231-24.576 25.265231h-2.225231a51.121231 51.121231 0 0 0-51.081846 51.081846c0 8.999385 4.411077 19.298462 4.450461 19.377231a31.842462 31.842462 0 0 1-10.673231 38.478769l-0.827077 0.590769-55.138461 30.621539-1.102769 0.492307a34.934154 34.934154 0 0 1-37.769846-7.522461c-7.246769-7.483077-26.702769-23.04-40.546462-23.04-15.005538 0-35.012923 17.408-40.822154 23.492923a34.914462 34.914462 0 0 1-37.769846 7.798154l-0.590769-0.256-57.619693-31.586462-0.807384-0.590769a31.803077 31.803077 0 0 1-10.771692-38.4c1.673846-3.938462 4.489846-12.465231 4.489846-19.456a51.140923 51.140923 0 0 0-51.081846-51.081846h-2.244924c-12.012308 0-21.661538-9.905231-24.576-25.245539-0.039385-0.236308-4.686769-24.772923-4.686769-44.110769 0-18.983385 4.489846-43.086769 4.686769-44.110769 2.894769-15.36 12.544-25.265231 24.556308-25.265231h2.264616a51.140923 51.140923 0 0 0 51.081846-51.062154c0-8.802462-4.273231-18.963692-4.450462-19.396923a31.842462 31.842462 0 0 1 10.653539-38.478769l0.807384-0.571077 54.094769-30.247385 1.122462-0.512a34.304 34.304 0 0 1 37.927385 7.975385c7.049846 7.68 27.293538 24.497231 41.452307 24.497231 15.458462 0 35.84-18.510769 41.747693-24.989539a34.343385 34.343385 0 0 1 37.848615-8.231384l0.886154 0.374154 56.044308 30.976 1.083076 0.708923c12.110769 8.467692 16.738462 25.009231 10.771693 38.439384-0.039385 0.098462-4.470154 10.476308-4.470154 19.475693a51.121231 51.121231 0 0 0 51.062154 51.062153h1.851077c0.118154 0 0.236308-0.039385 0.354461 0 12.071385 0 21.720615 9.905231 24.595693 25.206154 0.039385 0.236308 4.726154 24.576 4.726153 44.150154-0.019692 19.337846-4.667077 43.854769-4.726153 44.091077z m-110.139077-193.732923l-44.406154-24.536615a160.374154 160.374154 0 0 1-17.821539 15.478153c-17.250462 12.8-33.870769 19.298462-49.427692 19.298462-15.36 0-31.862154-6.360615-49.033846-18.944a158.188308 158.188308 0 0 1-17.723077-15.163077l-42.614154 23.808c2.284308 6.4 5.553231 17.565538 5.553231 29.262769a88.812308 88.812308 0 0 1-79.399385 88.359385c-1.181538 7.187692-3.190154 21.169231-3.190154 32.059077 0 10.929231 2.008615 24.891077 3.190154 32.078769a88.812308 88.812308 0 0 1 79.399385 88.359385c0 11.559385-3.170462 22.587077-5.513846 29.144615l45.646769 25.088c3.229538-3.150769 9.550769-8.96 17.742769-14.808615 16.935385-12.071385 33.181538-18.195692 48.246154-18.195693 14.887385 0 30.995692 6.006154 47.852308 17.841231 6.222769 4.391385 12.110769 9.255385 17.624615 14.532923l43.874462-24.379077c-2.363077-6.577231-5.533538-17.624615-5.533539-29.223384a88.792615 88.792615 0 0 1 79.399385-88.359385c1.181538-7.384615 3.170462-21.267692 3.170461-32.098461 0.019692-10.771692-1.910154-24.379077-3.150769-32.059077a88.792615 88.792615 0 0 1-79.399385-88.339693c0-11.618462 3.150769-22.626462 5.513847-29.203692zM257.024-1.792c-37.494154 0-69.12 25.521231-78.926769 59.982769h294.045538c2.402462 13.843692-7.089231 27.569231-3.347692 41.137231H143.891692a82.550154 82.550154 0 0 0-82.313846 82.313846V751.911385a82.510769 82.510769 0 0 0 82.274462 82.274461h458.574769a82.550154 82.550154 0 0 0 82.313846-82.313846V392.861538c13.312 7.876923 27.057231-12.937846 41.117539-6.498461V731.963077c40.388923-5.159385 71.995077-39.463385 71.995076-81.211077v-228.903385c13.548308 3.544615 27.293538-3.485538 41.117539-1.240615V673.929846c0 55.158154-45.134769 100.292923-100.292923 100.292923h-12.8v0.827077c0 55.138462-45.154462 100.292923-100.312616 100.292923H120.713846C65.575385 875.323077 20.48 830.227692 20.48 775.089231v-616.625231c0-55.158154 45.134769-100.292923 100.292923-100.292923h12.8v-0.827077c0-55.158154 45.154462-100.292923 100.312615-100.292923h232.290462a451.446154 451.446154 0 0 0-0.334769 41.137231H257.024zM473.068308-22.291692m-28.553846 0a28.553846 28.553846 0 1 1 57.107692 0 28.553846 28.553846 0 1 1-57.107692 0ZM818.372923 412.435692m-28.553846 0a28.553846 28.553846 0 1 1 57.107692 0 28.553846 28.553846 0 1 1-57.107692 0ZM705.122462 381.794462m-28.553847 0a28.553846 28.553846 0 1 1 57.107693 0 28.553846 28.553846 0 1 1-57.107693 0ZM478.365538 78.848m-28.553846 0a28.553846 28.553846 0 1 1 57.107693 0 28.553846 28.553846 0 1 1-57.107693 0ZM573.479385 613.612308H182.055385a33.043692 33.043692 0 0 0-32.807385 32.886154c0 17.998769 14.828308 32.886154 32.807385 32.886153h391.424c17.959385 0 32.807385-14.887385 32.807384-32.886153 0-18.018462-14.848-32.886154-32.807384-32.886154zM573.479385 436.381538H182.055385a33.043692 33.043692 0 0 0-32.807385 32.886154c0 17.998769 14.828308 32.886154 32.807385 32.886154h391.424c17.959385 0 32.807385-14.887385 32.807384-32.886154 0-18.018462-14.848-32.886154-32.807384-32.886154zM385.181538 259.150769H182.055385a33.043692 33.043692 0 0 0-32.807385 32.886154c0 17.998769 14.828308 32.886154 32.807385 32.886154H385.181538c17.979077 0 32.807385-14.887385 32.807385-32.886154-0.787692-18.786462-14.828308-32.886154-32.807385-32.886154z"  horiz-adv-x="1024" />

    
    <glyph glyph-name="fahuodingdan" unicode="&#58896;" d="M364.088889-122.311111a153.6 153.6 0 1 0 0 307.2 153.6 153.6 0 0 0 0-307.2z m0 79.644444a73.955556 73.955556 0 1 1 0 147.911111 73.955556 73.955556 0 0 1 0-147.911111zM796.444444-122.311111a153.6 153.6 0 1 0 0 307.2 153.6 153.6 0 0 0 0-307.2z m0 79.644444a73.955556 73.955556 0 1 1 0 147.911111 73.955556 73.955556 0 0 1 0-147.911111zM860.046222 468.536889a39.822222 39.822222 0 0 0 0-79.644445H728.177778a62.577778 62.577778 0 0 0-62.577778 62.577778V554.666667a39.822222 39.822222 0 0 0 79.644444 0v-86.129778h114.801778zM232.971378 84.150044v-79.644444H91.022222a85.333333 85.333333 0 0 0-85.333333 85.333333V801.700978A85.333333 85.333333 0 0 0 91.022222 887.034311h691.700622a85.333333 85.333333 0 0 0 85.333334-85.333333v-76.435911c0-1.501867 0.6144-2.958222 1.683911-4.004978l239.661511-239.684267a85.333333 85.333333 0 0 0 25.008356-60.347733v-331.389156a85.333333 85.333333 0 0 0-85.333334-85.333333h-139.332266v79.644444h139.332266a5.688889 5.688889 0 0 1 5.688889 5.688889V421.228089a5.688889 5.688889 0 0 1-1.683911 4.027733L813.420089 664.940089a85.333333 85.333333 0 0 0-25.008356 60.324978V801.700978a5.688889 5.688889 0 0 1-5.688889 5.688889H91.022222a5.688889 5.688889 0 0 1-5.688889-5.688889v-711.862045c0-3.140267 2.548622-5.688889 5.688889-5.688889h141.949156z m443.050666 0v-79.644444h-197.563733v79.644444h197.563733z"  horiz-adv-x="1137" />

    
    <glyph glyph-name="changjianwenti" unicode="&#58895;" d="M532.954074 553.28237c34.512593 0 62.65363-9.02637 83.892148-28.141037 21.238519-18.583704 31.857778-44.069926 31.857778-76.458666 0-26.548148-6.902519-48.31763-19.64563-65.308445-4.778667-5.30963-20.176593-19.64563-45.662814-41.946074a82.299259 82.299259 0 0 1-21.238519-26.548148c-5.30963-10.619259-7.964444-21.769481-7.964444-34.512593v-7.433481h-61.060741v7.433481c0 20.176593 3.185778 37.69837 10.619259 52.034371 6.902519 14.336 27.610074 36.636444 62.122667 67.432296l6.371555 7.433482c9.557333 11.681185 14.336 24.424296 14.336 37.69837 0 17.521778-5.30963 31.326815-14.866963 41.415111-10.088296 10.088296-24.424296 14.866963-42.477037 14.866963-23.36237 0-39.822222-6.902519-49.910518-21.769481-9.02637-12.212148-13.274074-29.733926-13.274074-52.034371h-60.529778c0 39.291259 11.150222 70.087111 34.512593 92.387556 22.831407 22.300444 53.627259 33.450667 92.918518 33.450666zM523.377778 246.916741c11.681185 0 21.769481-3.716741 29.733926-11.150222 7.433481-7.433481 11.681185-16.990815 11.681185-28.672s-4.247704-21.769481-12.212148-29.202963c-7.964444-7.433481-17.521778-11.150222-29.202963-11.150223s-21.238519 4.247704-29.202963 11.681186c-7.964444 7.433481-11.681185 16.990815-11.681185 28.672s3.716741 21.238519 11.681185 28.672c7.964444 7.433481 17.521778 11.150222 29.202963 11.150222zM509.895111-121.893926C229.338074-121.893926 1.896296 105.547852 1.896296 386.123852 1.896296 666.642963 229.338074 894.103704 509.895111 894.103704c280.557037 0 507.998815-227.441778 507.998815-507.998815 0-280.557037-227.441778-507.998815-508.017778-507.998815z m0 72.059259c240.753778 0 435.939556 195.185778 435.939556 435.958519 0 240.753778-195.185778 435.920593-435.958519 435.920592C269.141333 822.044444 73.955556 626.87763 73.955556 386.104889c0-240.753778 195.166815-435.939556 435.939555-435.939556z"  horiz-adv-x="1024" />

    
    <glyph glyph-name="xinjiankecheng1" unicode="&#58894;" d="M892.814222 693.911704H196.152889A100.939852 100.939852 0 0 0 95.326815 794.965333 100.939852 100.939852 0 0 0 196.152889 896h598.85037c17.313185 0 31.611259-14.336 31.61126-31.668148 0-17.351111-14.298074-31.668148-31.61126-31.668148H196.152889c-21.067852 0-37.622519-17.351111-37.622519-37.698371 0-21.124741 17.294222-37.717333 37.622519-37.717333h696.661333c17.294222 0 31.592296-14.317037 31.592297-31.668148-0.758519-17.332148-14.298074-31.668148-31.592297-31.668148z m0-821.911704H196.152889a100.939852 100.939852 0 0 0-100.826074 101.034667c0 17.351111 14.298074 31.668148 31.611259 31.668148 17.294222 0 31.592296-14.317037 31.592296-31.668148 0-21.105778 17.294222-38.456889 37.622519-38.456889h696.661333c17.294222 0 31.592296-14.317037 31.592297-31.668148-0.758519-16.57363-14.298074-30.90963-31.592297-30.90963zM126.938074-58.633481a31.819852 31.819852 0 0 0-31.611259 31.668148V794.965333c0 17.332148 14.298074 31.668148 31.611259 31.668148 17.294222 0 31.592296-14.336 31.592296-31.668148v-821.930666c-0.758519-17.332148-14.298074-31.668148-31.592296-31.668148zM892.814222-128a31.819852 31.819852 0 0 0-31.592296 31.668148V725.579852c0 17.351111 14.279111 31.668148 31.592296 31.668148 17.294222 0 31.592296-14.317037 31.592297-31.668148V-96.331852c-0.758519-17.332148-14.298074-31.668148-31.592297-31.668148z m-98.550518 821.911704a31.819852 31.819852 0 0 0-31.61126 31.668148V864.331852c0 17.332148 14.298074 31.668148 31.61126 31.668148 17.294222 0 31.592296-14.336 31.592296-31.668148v-138.752c0-17.332148-13.539556-31.668148-31.592296-31.668148z m-103.082667-204.344889H314.254222a31.819852 31.819852 0 0 0-31.592296 31.668148c0 17.351111 14.298074 31.668148 31.592296 31.668148H691.2c17.313185 0 31.611259-14.317037 31.611259-31.668148 0-17.332148-14.298074-31.668148-31.611259-31.668148z m-181.304889-141.767111H314.254222a31.819852 31.819852 0 0 0-31.592296 31.668148c0 17.351111 14.298074 31.668148 31.592296 31.668148h195.621926c17.294222 0 31.592296-14.317037 31.592296-31.668148-0.758519-18.090667-14.298074-31.668148-31.592296-31.668148z"  horiz-adv-x="1024" />

    
    <glyph glyph-name="daijinquan" unicode="&#58893;" d="M1338.289231 173.817436a11.500308 11.500308 0 0 1-11.552821 11.447795c-4.253538 0-8.402051 0.131282-12.629333 0.525128-92.790154 6.826667-162.947282 87.643897-156.38318 180.460308a167.857231 167.857231 0 0 0 168.356103 156.225641 11.290256 11.290256 0 0 1 11.447795 11.342769l-0.393846 197.710769a135.588103 135.588103 0 0 1-135.010462 135.115487L160.768 868.588308A134.852923 134.852923 0 0 1 26.25641 733.709128l0.393846-175.445333c0-5.77641 4.227282-10.555077 9.898667-11.316513a169.353846 169.353846 0 0 0 146.484513-155.359179 167.830974 167.830974 0 0 0-145.723077-178.91118 11.500308 11.500308 0 0 1-10.029949-11.290256l0.393846-175.314052a135.588103 135.588103 0 0 1 135.010462-135.141743l1041.381744-1.942975a134.380308 134.380308 0 0 1 134.485333 134.642872l-0.262564 150.186667z m-150.580513-204.117333L178.54359-28.383179a65.667282 65.667282 0 0 0-65.378462 65.509743l-0.262564 119.466667c0 4.726154 2.966974 8.84841 7.351795 10.660102a227.380513 227.380513 0 0 1 131.019487 135.666872c41.301333 116.473436-17.644308 244.420923-131.938461 289.608205a11.290256 11.290256 0 0 0-7.194257 10.528821l-0.262564 119.571692a65.220923 65.220923 0 0 0 65.115898 65.24718l1009.191384-1.916718a65.667282 65.667282 0 0 0 65.378462-65.509744l0.262564-134.774154a11.552821 11.552821 0 0 0-8.480821-11.053949 227.590564 227.590564 0 0 1-159.849025-166.045538C1054.772513 288.768 1126.321231 167.909744 1244.212513 134.564103a11.552821 11.552821 0 0 0 8.375795-10.948924l0.131282-88.667897a64.958359 64.958359 0 0 0-65.010872-65.247179zM878.802051 543.481436l-404.506256 0.761436c-18.668308-0.262564-33.476923-15.570051-33.083077-34.238359 0.393846-18.143179 15.044923-32.820513 33.214359-33.214359l404.506256-0.787692a33.476923 33.476923 0 0 1 33.083077 34.264615 33.792 33.792 0 0 1-33.188102 33.214359z m-11.053948-274.405744l-381.348103 0.761436c-18.668308-0.262564-33.476923-15.570051-33.083077-34.238359 0.36759-18.143179 15.044923-32.820513 33.188103-33.214359l381.374359-0.787692a33.476923 33.476923 0 0 1 33.083077 34.264615 33.975795 33.975795 0 0 1-33.214359 33.214359z"  horiz-adv-x="1365" />

    
    <glyph glyph-name="xinjianxueyuan" unicode="&#58892;" d="M789.617778 647.547259l-53.361778-22.509037a290.740148 290.740148 0 0 0-27.268741-270.923852 287.137185 287.137185 0 0 0-238.91437-128.094814c-186.671407-0.018963-346.225778-135.205926-377.950815-320.284445a32.104296 32.104296 0 0 0-20.404148-24.727704A31.819852 31.819852 0 0 0 40.201481-113.588148a32.237037 32.237037 0 0 0-11.093333 30.151111c27.704889 161.848889 140.875852 295.689481 295.253333 349.184-123.448889 72.855704-174.800593 225.98163-120.471703 359.158518l-106.078815 44.809482a38.551704 38.551704 0 0 0-27.401482 36.977778c0 17.066667 11.150222 32.085333 27.401482 36.977778L445.345185 890.519704a63.563852 63.563852 0 0 0 49.531259 0L842.353778 743.727407a38.684444 38.684444 0 0 0 11.245037-68.399407V483.176296a32.047407 32.047407 0 0 0-31.952593-32.142222 32.047407 32.047407 0 0 0-31.952592 32.142222v164.389926h-0.056889z m-112.260741-47.445333l-182.537481-77.141333a63.563852 63.563852 0 0 0-49.53126 0l-182.461629 77.141333c-37.925926-93.999407-8.647111-201.898667 71.49037-263.452445a222.644148 222.644148 0 0 1 271.511704 0c80.156444 61.553778 109.435259 169.453037 71.509333 263.452445zM210.299259 700.909037l232.865185-108.714667c17.066667-7.964444 36.750222-7.964444 53.816889 0l232.82726 108.714667a6.447407 6.447407 0 0 1 0 11.700148L496.981333 821.285926c-17.066667 7.964444-36.750222 7.964444-53.797926 0L210.280296 712.666074a6.447407 6.447407 0 0 1 0-11.700148v-0.056889z m611.290074-603.45837h127.810371c17.654519 0 31.952593-14.392889 31.952592-32.142223a32.047407 32.047407 0 0 0-31.952592-32.142222h-127.810371v-128.568889a32.047407 32.047407 0 0 0-31.952592-32.142222 32.047407 32.047407 0 0 0-31.952593 32.142222v128.568889h-127.829333a31.914667 31.914667 0 0 0-27.685926 16.06163 32.312889 32.312889 0 0 0 0 32.142222 31.914667 31.914667 0 0 0 27.685926 16.080593h127.81037v128.568889a32.047407 32.047407 0 0 0 31.971556 32.142222c17.635556 0 31.952593-14.392889 31.952592-32.142222v-128.568889z"  horiz-adv-x="1024" />

    
    <glyph glyph-name="daka" unicode="&#58890;" d="M930.03776 802.03776h-139.38688v46.4896A46.57152 46.57152 0 0 1 744.20224 894.976a46.57152 46.57152 0 0 1-46.46912-46.46912v-46.46912H325.8368v46.4896A46.57152 46.57152 0 0 1 279.32672 894.976a46.57152 46.57152 0 0 1-46.44864-46.46912v-46.46912H93.4912A93.34784 93.34784 0 0 1 0.45056 709.0176v-743.6288a93.34784 93.34784 0 0 1 93.04064-93.04064h836.54656a93.34784 93.34784 0 0 1 93.04064 93.04064V709.0176a93.34784 93.34784 0 0 1-93.04064 93.02016z m0.12288-813.3632c0-12.8-10.50624-23.28576-23.28576-23.28576H116.89984a23.38816 23.38816 0 0 0-23.28576 23.28576V685.71136c0 12.8 10.50624 23.30624 23.28576 23.30624h115.97824v-46.4896a46.57152 46.57152 0 0 1 46.46912-46.44864 46.57152 46.57152 0 0 1 46.46912 46.46912V709.0176h371.8144v-46.4896a46.57152 46.57152 0 0 1 46.44864-46.44864 46.57152 46.57152 0 0 1 46.46912 46.46912V709.0176h116.10112c12.77952 0 23.28576-10.50624 23.28576-23.30624v-697.0368h0.22528zM725.93408 477.3888L468.04992 260.71040000000005l-155.83232 155.83232a46.4896 46.4896 0 0 1-65.7408-65.76128l185.9584-185.9584c9.0112-9.0112 20.8896-13.59872 32.8704-13.59872 10.62912 0 21.23776 3.66592 29.9008 10.8544L785.77664 406.1184a46.4896 46.4896 0 1 1-59.82208 71.24992z"  horiz-adv-x="1024" />

    
    <glyph glyph-name="jiaowuzhongxin" unicode="&#58889;" d="M244.337778 871.936m42.666666 0l0 0q42.666667 0 42.666667-42.666667l0-56.888889q0-42.666667-42.666667-42.666666l0 0q-42.666667 0-42.666666 42.666666l0 56.888889q0 42.666667 42.666666 42.666667ZM699.164444 872.106667m42.666667 0l0 0q42.666667 0 42.666667-42.666667l0-56.888889q0-42.666667-42.666667-42.666667l0 0q-42.666667 0-42.666667 42.666667l0 56.888889q0 42.666667 42.666667 42.666667ZM824.888889 800.199111h85.333333a28.444444 28.444444 0 0 0 28.444445-28.444444v-853.333334a28.444444 28.444444 0 0 0-28.444445-28.444444H113.777778a28.444444 28.444444 0 0 0-28.444445 28.444444v853.333334a28.444444 28.444444 0 0 0 28.444445 28.444444H199.111111v-28.444444a85.333333 85.333333 0 0 1 170.666667 0v28.444444h284.444444v-28.444444a85.333333 85.333333 0 0 1 170.666667 0v28.444444zM244.167111 560.2417780000001a42.666667 42.666667 0 1 1 0-85.333334h540.444445a42.666667 42.666667 0 1 1 0 85.333334h-540.444445zM241.777778 345.08799999999997a42.666667 42.666667 0 1 1 0-85.333333h540.444444a42.666667 42.666667 0 1 1 0 85.333333h-540.444444z m-1.536-201.841778a42.666667 42.666667 0 0 1 0-85.333333h312.888889a42.666667 42.666667 0 1 1 0 85.333333h-312.888889z"  horiz-adv-x="1024" />

    
    <glyph glyph-name="dingdanguanli" unicode="&#58888;" d="M850.782316 784.276211h-176.936421v-110.969264H260.850526v111.023158H83.806316c-16.276211 0-29.426526-12.449684-29.426527-27.701894v-776.461474c0-15.36 13.150316-27.755789 29.426527-27.75579h399.952842c-37.510737 44.840421-60.793263 100.621474-60.793263 162.061474 0 14.551579 2.048 28.456421 4.473263 42.361263H229.968842c-32.660211 0-59.014737 24.791579-59.014737 55.457684 0 30.558316 26.408421 55.511579 58.960842 55.511579H475.890526a279.013053 279.013053 0 0 0 131.718737 93.507369H229.914947c-32.552421 0-58.960842 24.737684-58.960842 55.349895 0 30.666105 26.408421 55.511579 58.960842 55.511578h472.010106c32.606316 0 59.014737-24.845474 59.014736-55.511578a53.355789 53.355789 0 0 0-21.504-41.822316 289.037474 289.037474 0 0 0 140.826948-57.721263V756.574316c0 15.198316-13.204211 27.648-29.426526 27.648z m20.857263-605.615158l-41.822316 39.181473-146.162526-137.216-83.321263 78.416842-41.768421-39.235368 125.089684-117.652211h0.107789l187.823158 176.505264h0.053895z m67.691789-68.769685c0-116.304842-100.352-210.620632-224.202105-210.620631-123.796211 0-224.256 94.315789-224.256 210.674526 0 116.412632 100.459789 210.836211 224.202105 210.836211 123.904 0 224.202105-94.423579 224.202106-210.836211v-0.053895zM614.831158 729.357474H319.757474V840.218947h59.014737c0 30.612211 26.462316 55.511579 59.014736 55.511579h59.014737c32.606316 0 59.014737-24.899368 59.014737-55.511579h59.014737v-110.861473z"  horiz-adv-x="1024" />

    
    <glyph glyph-name="neirongguanli" unicode="&#58887;" d="M45.176471 896h933.647058a45.176471 45.176471 0 0 0 45.176471-45.176471v-933.647058a45.176471 45.176471 0 0 0-45.176471-45.176471H45.176471a45.176471 45.176471 0 0 0-45.176471 45.176471V850.823529A45.176471 45.176471 0 0 0 45.176471 896z m181.970823-196.728471a45.176471 45.176471 0 0 1 0-90.352941h572.235294a45.176471 45.176471 0 1 1 0 90.352941h-572.235294z m-4.698353-275.154823a45.176471 45.176471 0 0 1 0-90.352941h572.235294a45.176471 45.176471 0 1 1 0 90.352941h-572.235294z m0.602353-266.962824a45.176471 45.176471 0 0 1 0-90.352941h271.058824a45.176471 45.176471 0 1 1 0 90.352941h-271.058824z m662.528 42.767059l-62.765176 63.247059-186.729412-186.669176 63.006118-63.066353 186.48847 186.48847z m-292.442353-230.580706l85.89553 22.949647-62.885647 62.945883-23.009883-85.89553z m318.644706 356.171294a17.829647 17.829647 0 0 1-25.298823 0l-25.118118-25.178353a17.829647 17.829647 0 0 1 0-25.178352l37.767529-37.827765a17.829647 17.829647 0 0 1 25.178353 0l25.178353 25.238588a17.829647 17.829647 0 0 1 0 25.178353l-37.707294 37.767529z"  horiz-adv-x="1024" />

    
    <glyph glyph-name="shangpinkecheng" unicode="&#58886;" d="M332.057644-60.48020699999995c0-35.054879-36.982295-63.845656-83.360744-63.845656H76.614787C30.898888-124.32586300000003 0-96.01693999999998 0-60.48020699999995v57.581554h331.395094v-57.641786h0.602318z m0 124.438798L0.602318 64.500676V700.487736h331.395094v-636.529145z m0 699.832715L0.602318 765.839186V832.154344C0.662549 867.088759 30.898888 896 77.277337 896H249.359449C295.13558 896 332.720193 867.691077 332.720193 832.154344v-68.363038h-0.662549z m499.381448-826.379624c0-34.994647-36.982295-63.845656-83.360744-63.845656H496.731251c-45.776131 0-83.360743 28.308923-83.360743 63.845656V700.487736c0 34.934416 36.982295 63.845656 83.360743 63.845656h251.347097c45.776131 0 83.360743-28.308923 83.360744-63.845656v-763.136286zM1084.171519 531.176284c0 22.647138-24.213164 41.198518-53.786953 41.198517h-54.449503c-29.513558 0-53.726722-18.551379-53.726722-41.198517v-64.32751H1084.171519V531.176284z m-162.02341-617.977766c0-22.586907 24.213164-41.138286 53.786954-41.138286h54.449503c29.57379 0 53.786954 18.551379 53.786953 41.138286V-24.943474000000037h-162.02341v-61.797777z m0 508.958296H1084.171519v-402.950414h-162.02341v402.950414z"  horiz-adv-x="1084" />

    
    <glyph glyph-name="shezhi" unicode="&#58885;" d="M487.154526-120.832a148.749474 148.749474 0 0 0-74.105263 19.779368l-312.050526 180.116211A148.587789 148.587789 0 0 0 26.947368 207.33305299999995V567.673263c0 52.709053 28.402526 101.861053 74.051369 128.269474L413.157053 876.166737a148.210526 148.210526 0 0 0 148.048842 0l312.158316-180.170105a148.587789 148.587789 0 0 0 74.051368-128.269474v-360.286316c0-52.709053-28.348632-101.861053-74.051368-128.269474L561.313684-101.05263200000002a148.264421 148.264421 0 0 0-74.159158-19.779368z m-11.264 352.956632a155.755789 155.755789 0 0 1 155.540211 155.486315A155.755789 155.755789 0 0 1 475.890526 543.151158a155.755789 155.755789 0 0 1-155.486315-155.540211 155.755789 155.755789 0 0 1 155.486315-155.486315z"  horiz-adv-x="1024" />

    
    <glyph glyph-name="shuju" unicode="&#58884;" d="M1209.408-28.416000000000054a52.288 52.288 0 0 1-38.4 16.96H149.888c-22.656 0-41.088 20.864-41.088 46.464V837.312C108.8 869.12 84.48 895.168 54.528 895.168 24.576 895.168 0.192 869.184 0.192 837.312v-802.304c0-89.408 67.2-162.176 149.76-162.176h1021.056c29.952 0 54.336 25.984 54.336 57.856a59.456 59.456 0 0 1-15.936 40.96zM286.912 42.624000000000024h110.272a65.28 65.28 0 0 1 65.28 65.28V409.088a65.28 65.28 0 0 1-65.28 65.28H286.912a65.28 65.28 0 0 1-65.28-65.28v-301.184c0-35.968 29.312-65.28 65.28-65.28z m364.16 6.72h110.272a65.28 65.28 0 0 1 65.28 65.28V827.2a65.28 65.28 0 0 1-65.28 65.28h-110.208a65.28 65.28 0 0 1-65.28-65.28V114.55999999999995c0-35.968 29.312-65.28 65.28-65.28z m361.472-11.84h110.208a65.28 65.28 0 0 1 65.28 65.28V585.088a65.28 65.28 0 0 1-65.28 65.28h-110.208a65.28 65.28 0 0 1-65.28-65.28v-482.304c0-36.032 29.312-65.28 65.28-65.28z"  horiz-adv-x="1280" />

    
    <glyph glyph-name="yonghuguanli" unicode="&#58883;" d="M1174.272 239.03999999999996a498.752 498.752 0 0 1-142.656 95.232c74.752 57.856 122.496 146.176 122.496 245.184 0 174.848-152.512 318.208-335.424 315.52C638.592 892.224 493.44 752 493.44 579.392c0-99.008 47.872-187.328 122.496-245.184a497.792 497.792 0 0 1-142.656-95.296c-90.112-86.272-141.248-200.064-144.576-321.6a12.928 12.928 0 0 1 13.184-12.928h964.16a12.928 12.928 0 0 1 13.184 12.928c-3.328 121.472-54.4 235.264-144.96 321.6v0.064zM256.128 28.28800000000001H11.584A11.264 11.264 0 0 0 0 39.55200000000002c2.944 106.24 47.616 205.952 126.592 281.408a435.584 435.584 0 0 0 124.8 83.328c-65.28 50.688-107.2 128-107.2 214.656C144.192 769.92 271.168 892.672 428.736 894.976a296.256 296.256 0 0 0 137.344-31.36c-94.848-55.488-158.016-155.264-158.016-269.12 0-99.008 47.872-187.328 122.496-245.248A497.792 497.792 0 0 1 387.84 254.08000000000004a465.408 465.408 0 0 1-131.776-225.664v-0.064z"  horiz-adv-x="1344" />

    
    <glyph glyph-name="yunyingguanli" unicode="&#58882;" d="M80.668444 896h302.478223c53.76 0 80.668444-26.908444 80.668444-80.668444v-302.478223c0-53.76-26.908444-80.668444-80.668444-80.668444H80.668444C26.908444 432.184889 0 459.093333 0 512.853333V815.331556C0 869.091556 26.908444 896 80.668444 896z m560.184889 0h302.478223C997.091556 896 1024 869.091556 1024 815.331556v-302.478223c0-53.76-26.908444-80.668444-80.668444-80.668444h-302.478223c-53.76 0-80.668444 26.908444-80.668444 80.668444V815.331556C560.184889 869.091556 587.093333 896 640.853333 896zM80.668444 335.815111h302.478223c53.76 0 80.668444-26.908444 80.668444-80.668444v-302.478223c0-53.76-26.908444-80.668444-80.668444-80.668444H80.668444C26.908444-128 0-101.09155599999997 0-47.33155599999998v302.478223c0 53.76 26.908444 80.668444 80.668444 80.668444z m709.233778-38.684444h0.568889a191.544889 191.544889 0 1 0-191.544889-190.407111 190.350222 190.350222 0 0 0 190.976 190.350222z"  horiz-adv-x="1024" />

    
    <glyph glyph-name="shouye" unicode="&#58881;" d="M926.378667 574.065778c17.180444-18.432 26.737778-42.780444 26.737777-67.982222v-534.357334A99.726222 99.726222 0 0 0 853.333333-128H156.615111A99.726222 99.726222 0 0 0 56.888889-28.273777999999993V506.140444c0 25.201778 9.500444 49.493333 26.737778 67.925334l348.387555 290.133333a99.726222 99.726222 0 0 0 145.976889 0l348.387556-290.133333z m-566.442667-335.416889a145.066667 145.066667 0 1 1 290.133333 0 145.066667 145.066667 0 0 1-290.133333 0z"  horiz-adv-x="1024" />

    


  </font>
</defs>
</svg>
